<svg xmlns="http://www.w3.org/2000/svg" width="1200" height="675"><rect width="1200" height="675" fill="#10141f"/><g font-family="Arial"><text x="65" y="72" fill="#fff" font-size="34" font-weight="bold">Real-Time Fraud Detection</text><text x="65" y="108" fill="#9da8bd" font-size="19">Kafka stream • ML scoring • explainable decisions</text>
<rect x="65" y="150" width="1070" height="455" rx="18" fill="#191f2e"/><text x="95" y="198" fill="#9da8bd" font-size="17">TRANSACTION</text><text x="95" y="235" fill="#fff" font-size="22">RISK-1  •  $20,000  •  02:00  •  US → NG</text>
<rect x="95" y="275" width="300" height="220" rx="14" fill="#251a22"/><text x="125" y="320" fill="#ff6882" font-size="22" font-weight="bold">BLOCK</text><text x="125" y="385" fill="#fff" font-size="52" font-weight="bold">1.000</text><text x="125" y="425" fill="#9da8bd" font-size="17">fraud risk score</text>
<text x="450" y="305" fill="#fff" font-size="21" font-weight="bold">Explainable risk indicators</text>
<g font-size="16"><rect x="450" y="335" width="190" height="42" rx="21" fill="#7c2638"/><text x="470" y="362" fill="#fff">HIGH AMOUNT</text><rect x="655" y="335" width="205" height="42" rx="21" fill="#7c2638"/><text x="675" y="362" fill="#fff">UNUSUAL HOUR</text><rect x="875" y="335" width="210" height="42" rx="21" fill="#7c2638"/><text x="895" y="362" fill="#fff">COUNTRY MISMATCH</text>
<rect x="450" y="397" width="220" height="42" rx="21" fill="#7c2638"/><text x="470" y="424" fill="#fff">HIGH-RISK MERCHANT</text><rect x="685" y="397" width="185" height="42" rx="21" fill="#7c2638"/><text x="705" y="424" fill="#fff">HIGH VELOCITY</text><rect x="885" y="397" width="175" height="42" rx="21" fill="#7c2638"/><text x="905" y="424" fill="#fff">NEW ACCOUNT</text></g>
<text x="450" y="500" fill="#48d6a1" font-size="18">✓ Decision stored in audit trail</text><text x="450" y="540" fill="#48d6a1" font-size="18">✓ Prometheus metric emitted</text><text x="450" y="580" fill="#48d6a1" font-size="18">✓ Streaming consumer ready</text></g></svg>
